<svg preserveAspectRatio="none" width="100%" height="100%" overflow="visible" style="display: block;" viewBox="0 0 538 535" fill="none" xmlns="http://www.w3.org/2000/svg">
<g id="Vector">
<path d="M217.227 165.058C231.544 158.292 243.576 153.473 262.941 153.91C289.374 157.501 312.446 159.635 334.233 174.57C346.532 181.861 359.431 193.296 366.022 205.483C372.033 220.178 379.378 231.357 382.627 246.62C385.846 261.735 381.756 275.561 383.022 292.781C381.535 300.344 379.267 307.815 376.195 315.077C373.177 322.213 371.248 329.93 366.362 336.843C359.46 346.935 352.862 350.847 345.829 356.975C323.269 372.297 299.97 384.37 273.717 385.373C263.663 385.758 253.514 384.86 243.535 382.633C229.223 379.44 212.081 372.474 203.454 366.56C194.079 356.713 184.493 345.581 172.238 331.48C162.156 317.727 155.048 291.189 150.249 273.077C148.013 261.282 154.195 247.34 158.061 235.104C161.433 224.432 165.152 213.197 171.863 203.516C177.024 196.071 181.347 188.346 187.808 182.519C196.238 174.918 205.464 168.397 217.227 165.058Z" fill="var(--fill-0, #eae5d8)"/>
<path fill-rule="evenodd" clip-rule="evenodd" d="M311.851 29.0011L300.108 54.953L315.652 81.2724L363.47 38.3L388.342 45.7919L421.855 50.3706L446.164 60.3334L427.995 83.0262L402.81 98.8955L403.037 129.417L432.6 117.532L466.054 115.978L502.185 145.007L526.593 176.175L502.185 185.202L469.657 188.017L466.054 201.483L454.242 215.027C454.689 215.074 455.137 215.131 455.585 215.197C456.07 215.268 456.556 215.351 457.043 215.443C457.416 215.514 457.79 215.59 458.164 215.672C458.247 215.69 458.329 215.708 458.411 215.727C458.775 215.809 459.139 215.896 459.504 215.988C460.227 216.171 460.951 216.372 461.676 216.592C462.356 216.797 463.036 217.018 463.717 217.252C464.004 217.351 464.292 217.452 464.579 217.555C465.199 217.778 465.819 218.011 466.439 218.254C467.05 218.492 467.66 218.743 468.271 218.998C469.472 219.499 470.672 220.027 471.867 220.576C473.218 221.197 474.563 221.841 475.9 222.494C477.682 223.366 479.448 224.253 481.192 225.122C482.063 225.556 482.929 225.986 483.788 226.407C484.647 226.827 485.499 227.24 486.343 227.638C489.51 229.132 492.568 230.438 495.467 231.329C495.66 231.389 495.853 231.447 496.045 231.502C496.354 231.647 496.662 231.788 496.968 231.927C497.579 232.203 498.183 232.467 498.778 232.719C499.373 232.97 499.959 233.21 500.535 233.438C500.823 233.552 501.109 233.663 501.391 233.772C502.239 234.097 503.062 234.398 503.856 234.678C505.709 235.33 507.404 235.864 508.884 236.315C510.007 236.658 511.006 236.953 511.856 237.215C512.927 237.545 513.761 237.823 514.309 238.081C514.637 238.235 514.863 238.382 514.976 238.529C515.481 239.182 516.459 241.792 517.738 245.67C520.06 252.712 523.368 263.941 526.593 275.259C534.403 293.54 537.986 316.398 538 316.489L482.739 298.434L457.229 313.332L475.579 331.736L499.484 361.441L499.485 361.443L499.477 361.467L497.579 389.739L484.277 416.705L477.329 443.675L477.328 443.676L477.313 443.655L438.996 412.634L413.669 400.564V412.634L421.371 463.455L421.369 463.46L407.017 481.831L360.837 523.656L353.806 498.774L348.93 467.038L336.154 460.461L322.851 458.935L313.386 489.008L302.43 512.965L302.428 512.963L268.616 523.656L219.736 535L232.033 507.78L237.893 480.047L234.336 463.46L222.35 453.727L214.126 470.128L200.311 480.047L174.53 496.7L134.964 492.516L91.8365 474.667L116.629 448.25L131.75 431.46V409.581L106.679 405.582L71.945 419.022L38.5148 395.335L11.4082 358.824L45.7923 354.631L68.3434 346.983L78.5387 316.981L53.9794 308.331L22.1588 300.744L8.95429 269.663L0 218.511L30.9546 221.108L53.9794 229.468L81.729 221.108L58.072 201.992L38.5148 173.557L45.7923 150.095L50.3976 113.97L60.6708 91.3253L60.6717 91.3244L78.5387 117.532L99.451 134.436H118.958L124.586 117.532L118.958 91.3253L116.629 71.5447L141.215 38.3L177.164 11.3437L181.38 46.3008L189.071 67.9623L204.916 71.5438L217.196 76.3198L222.35 50.3706L235.57 22.0352L277.058 8.14048L318.264 0L311.851 29.0011ZM281.804 128.367C263.669 126.518 244.097 131.025 225.892 134.509C207.489 139.765 192.745 151.697 176.042 160.771C166.447 168.707 158.897 178.828 151.473 189.538C144.048 200.248 136.467 211.179 134.299 223.375C133.267 237.491 126.104 252.004 125.572 265.283C124.85 283.326 128.457 295.281 133.372 310.781C138.22 326.069 140.694 337.829 150.675 350.905C159.633 362.642 169.833 374.301 182.713 383.13C195.09 391.614 216.296 397.652 229.927 401.812C240.996 405.19 250.139 409.094 261.466 409.722C281.749 408.828 305.513 404.595 323.025 399.495C335.413 393.165 345.583 388.55 355.649 380.81C366.779 372.251 372.563 368.46 385.678 352.365C393.428 342.854 395.874 332.339 399.628 323.159C403.037 314.824 401.163 316.229 407.278 297.616C413.394 279.003 410.664 258.833 406.404 240.005C406.098 226.113 397.836 211.327 390.359 197.079C385.641 189.525 378.137 183 372.08 175.048C366.023 167.096 357.058 160.569 348.164 154.473C327.684 140.434 305.984 133.54 281.804 128.367Z" fill="var(--fill-0, #eae5d8)"/>
</g>
</svg>
