<svg preserveAspectRatio="none" width="100%" height="100%" overflow="visible" style="display: block;" viewBox="0 0 220 57" fill="none" xmlns="http://www.w3.org/2000/svg">
<g id="Vector">
<path d="M67.9096 45.9046V17.7804H63.8641V11.0954H78.7686V17.7804H74.7231V45.9046H67.9096Z" fill="var(--fill-0, #EAE5D8)"/>
<path d="M79.8727 45.9046V11.0954H90.3252C92.0673 11.0954 93.3836 11.5042 94.274 12.3217C95.1644 13.126 95.7579 14.2599 96.0547 15.7235C96.3645 17.1738 96.5193 18.8813 96.5193 20.8459C96.5193 22.7446 96.2806 24.2609 95.8031 25.3949C95.3386 26.5288 94.4546 27.3133 93.1513 27.7484C94.2223 27.9726 94.9708 28.5198 95.3966 29.39C95.8354 30.2471 96.0547 31.3612 96.0547 32.7325V45.9046H89.338V32.2776C89.338 31.2623 89.1316 30.636 88.7186 30.3987C88.3186 30.1482 87.6669 30.0229 86.7636 30.0229V45.9046H79.8727ZM86.8023 23.9906H88.4476C89.3897 23.9906 89.8607 22.9424 89.8607 20.8459C89.8607 19.4879 89.7574 18.5978 89.551 18.1759C89.3445 17.754 88.9574 17.543 88.3896 17.543H86.8023V23.9906Z" fill="var(--fill-0, #EAE5D8)"/>
<path d="M97.0427 45.9046L100.333 11.0954H111.889L115.122 45.9046H108.676L108.192 40.2876H104.088L103.663 45.9046H97.0427ZM104.572 34.73H107.669L106.179 17.0288H105.869L104.572 34.73Z" fill="var(--fill-0, #EAE5D8)"/>
<path d="M116.419 45.9046V11.0954H125.788C128.24 11.0954 130.085 11.7942 131.324 13.1919C132.563 14.5763 133.182 16.6069 133.182 19.2835V35.5805C133.182 38.8768 132.614 41.4216 131.479 43.2148C130.356 45.008 128.382 45.9046 125.556 45.9046H116.419ZM123.272 39.7536H124.452C125.704 39.7536 126.33 39.1339 126.33 37.8945V19.9362C126.33 18.7758 126.175 18.0309 125.865 17.7012C125.569 17.3584 124.956 17.187 124.026 17.187H123.272V39.7536Z" fill="var(--fill-0, #EAE5D8)"/>
<path d="M135.177 45.9046V11.0954H148.804V17.8199H142.106V24.6037H148.533V31.1502H142.106V39.1207H149.249V45.9046H135.177Z" fill="var(--fill-0, #EAE5D8)"/>
<path d="M154.844 45.9046V34.4532L149.404 11.0954H156.16L158.057 22.8831L159.954 11.0954H166.69L161.27 34.4532V45.9046H154.844Z" fill="var(--fill-0, #EAE5D8)"/>
<path d="M165.761 45.9046L169.052 11.0954H180.608L183.84 45.9046H177.395L176.911 40.2876H172.807L172.381 45.9046H165.761ZM173.291 34.73H176.388L174.898 17.0288H174.588L173.291 34.73Z" fill="var(--fill-0, #EAE5D8)"/>
<path d="M185.138 45.9046V11.0954H195.591C197.333 11.0954 198.649 11.5042 199.539 12.3217C200.43 13.126 201.023 14.2599 201.32 15.7235C201.63 17.1738 201.785 18.8813 201.785 20.8459C201.785 22.7446 201.546 24.2609 201.069 25.3949C200.604 26.5288 199.72 27.3133 198.417 27.7484C199.488 27.9726 200.236 28.5198 200.662 29.39C201.101 30.2471 201.32 31.3612 201.32 32.7325V45.9046H194.603V32.2776C194.603 31.2623 194.397 30.636 193.984 30.3987C193.584 30.1482 192.932 30.0229 192.029 30.0229V45.9046H185.138ZM192.068 23.9906H193.713C194.655 23.9906 195.126 22.9424 195.126 20.8459C195.126 19.4879 195.023 18.5978 194.816 18.1759C194.61 17.754 194.223 17.543 193.655 17.543H192.068V23.9906Z" fill="var(--fill-0, #EAE5D8)"/>
<path d="M203.237 45.9046V11.0954H212.606C215.058 11.0954 216.903 11.7942 218.142 13.1919C219.381 14.5763 220 16.6069 220 19.2835V35.5805C220 38.8768 219.432 41.4216 218.297 43.2148C217.174 45.008 215.2 45.9046 212.374 45.9046H203.237ZM210.089 39.7536H211.27C212.522 39.7536 213.148 39.1339 213.148 37.8945V19.9362C213.148 18.7758 212.993 18.0309 212.683 17.7012C212.386 17.3584 211.773 17.187 210.844 17.187H210.089V39.7536Z" fill="var(--fill-0, #EAE5D8)"/>
<path d="M27.3502 16.398C30.0998 16.7806 32.4997 17.0079 34.7659 18.599C36.0453 19.3758 37.3869 20.5941 38.0726 21.8925C38.6978 23.4582 39.4617 24.6493 39.7997 26.2753C40.1345 27.8858 39.7093 29.3588 39.841 31.1933C39.6863 31.9991 39.4503 32.7953 39.1308 33.569C38.8168 34.3293 38.6161 35.1515 38.1079 35.888C37.39 36.9632 36.7036 37.3799 35.9721 38.0328C33.6255 39.6652 31.202 40.9515 28.4712 41.0584C27.4254 41.0994 26.3698 41.0037 25.3317 40.7665C23.8431 40.4263 22.0601 39.6841 21.1627 39.0541C20.1875 38.0049 19.1903 36.8189 17.9157 35.3165C16.867 33.8513 16.1276 31.0239 15.6285 29.0942C15.3959 27.8376 16.039 26.3521 16.4412 25.0484C16.7919 23.9114 17.1786 22.7145 17.8767 21.6831C18.4135 20.8899 18.8632 20.0667 19.5353 19.4459C20.4121 18.6361 21.3718 17.9413 22.5953 17.5856C24.0845 16.8647 25.336 16.3514 27.3502 16.398Z" fill="var(--fill-0, #EAE5D8)"/>
<path fill-rule="evenodd" clip-rule="evenodd" d="M32.4379 3.08978L31.2164 5.85471L32.8331 8.65895L37.8071 4.08047L40.3942 4.87868L43.8801 5.3667L46.4085 6.42792L44.5188 8.8457L41.8991 10.5364L41.9227 13.7883L44.9979 12.5221L48.4775 12.3566L52.2358 15.4493L54.7747 18.77L52.2358 19.7318L48.8523 20.0316L48.4775 21.4666L47.2489 22.9094C47.4813 22.9345 47.7161 22.9853 47.9517 23.0547C47.9987 23.0686 48.0458 23.0832 48.0929 23.0985C48.989 23.3892 49.8926 23.9267 50.7192 24.3154C50.8932 24.3973 51.0638 24.4725 51.2302 24.5374C51.3134 24.5699 51.3956 24.5998 51.4766 24.6267C51.517 24.6401 51.5572 24.6529 51.5971 24.6647C51.6615 24.6956 51.7252 24.725 51.788 24.7531C52.7297 25.1748 53.478 25.2965 53.5662 25.4134C53.714 25.6095 54.2546 27.4566 54.7747 29.3267C55.4267 30.8898 55.7947 32.7674 55.9157 33.4526C55.9451 33.6193 55.9606 33.7153 55.9612 33.7192L50.2132 31.7959L47.5597 33.3829L49.4683 35.3437L51.9549 38.5087L51.9551 38.5089L51.9542 38.5115L51.7567 41.5235L50.3729 44.3966L49.6504 47.27L49.6487 47.2679L45.6631 43.9629L43.0286 42.6769V43.9629L43.8298 49.3774L43.8296 49.3778L42.3367 51.3352L37.5332 55.7915L36.8019 53.1405L36.2946 49.7592L34.9657 49.0585L33.582 48.8958L32.5974 52.1001L31.4579 54.6523L31.4577 54.6521L27.9407 55.7915L22.8565 57L24.1355 54.0999L24.745 51.1453L24.375 49.3778L23.1282 48.3411L22.2726 50.0885L20.8357 51.1453L18.1541 52.9195L14.0385 52.4736L9.55262 50.5721L12.1314 47.7574L13.7043 45.9685V43.6377L11.0964 43.2115L7.48345 44.6434L4.00611 42.1198L1.18665 38.23L4.76327 37.7832L7.10883 36.9684L8.16928 33.7717L5.61472 32.8503L2.30488 32.0419L0.931337 28.7303L0 23.2808L3.21974 23.5574L5.61472 24.448L8.50114 23.5574L6.04045 21.5207L4.00611 18.4911L4.76327 15.9915L5.24219 12.1426L6.31077 9.72995L8.16928 12.5221L10.3446 14.3231H12.3737L12.9592 12.5221L12.3737 9.72995L12.1314 7.62258L14.6888 4.08047L18.428 1.20868L18.8666 4.93286L19.6665 7.24079L21.3148 7.62236L22.592 8.1312L23.1282 5.3667L24.5032 2.34766L28.8189 0.867255L33.1049 0L32.4379 3.08978ZM29.3124 13.6766C27.426 13.4796 25.3902 13.9597 23.4966 14.3309C21.5824 14.8908 20.0488 16.162 18.3114 17.1288C17.3133 17.9743 16.528 19.0526 15.7558 20.1937C14.9835 21.3348 14.1949 22.4995 13.9694 23.7989C13.8621 25.3028 13.117 26.849 13.0617 28.2637C12.9865 30.1861 13.3618 31.46 13.8731 33.1114C14.3773 34.7402 14.6346 35.9931 15.6727 37.3863C16.6045 38.6367 17.6656 39.8788 19.0053 40.8194C20.2927 41.7233 22.4984 42.3667 23.9163 42.8099C25.0677 43.1698 26.0187 43.5858 27.1969 43.6527C29.3067 43.5575 31.7786 43.1063 33.6001 42.563C34.8887 41.8886 35.9466 41.397 36.9936 40.5723C38.1514 39.6604 38.753 39.2564 40.1172 37.5416C40.9232 36.5283 41.1778 35.4082 41.5683 34.4301C41.9228 33.5421 41.7278 33.6917 42.3638 31.7088C43 29.7257 42.716 27.5766 42.2729 25.5706C42.2411 24.0905 41.3818 22.5152 40.604 20.9972C40.1133 20.1924 39.3327 19.4972 38.7027 18.65C38.0727 17.8028 37.1401 17.1074 36.2149 16.4579C34.0847 14.9621 31.8276 14.2277 29.3124 13.6766Z" fill="var(--fill-0, #EAE5D8)"/>
</g>
</svg>
